<svg width="39" height="40" viewBox="0 0 39 40" fill="none" xmlns="http://www.w3.org/2000/svg">
<path d="M27.625 4.07904H11.375C6.88769 4.07904 3.25 7.68603 3.25 12.1355V28.2483C3.25 32.6978 6.88769 36.3048 11.375 36.3048H27.625C32.1123 36.3048 35.75 32.6978 35.75 28.2483V12.1355C35.75 7.68603 32.1123 4.07904 27.625 4.07904Z" stroke="white" stroke-width="2" stroke-linecap="round" stroke-linejoin="round"/>
<path d="M26 19.1768C26.2006 20.5178 25.9696 21.8874 25.3399 23.0907C24.7102 24.294 23.7139 25.2698 22.4927 25.8792C21.2714 26.4887 19.8875 26.7009 18.5377 26.4855C17.1878 26.2701 15.9409 25.6382 14.9741 24.6796C14.0074 23.721 13.3701 22.4846 13.1529 21.1462C12.9357 19.8077 13.1496 18.4355 13.7643 17.2245C14.379 16.0136 15.3631 15.0257 16.5766 14.4014C17.7902 13.777 19.1714 13.5479 20.5238 13.7468C21.9033 13.9496 23.1804 14.587 24.1665 15.5648C25.1526 16.5426 25.7955 17.809 26 19.1768Z" stroke="white" stroke-width="2" stroke-linecap="round" stroke-linejoin="round"/>
<path d="M28.4375 11.3298H28.4537" stroke="white" stroke-width="2" stroke-linecap="round" stroke-linejoin="round"/>
</svg>
