<svg width="39" height="40" viewBox="0 0 39 40" fill="none" xmlns="http://www.w3.org/2000/svg">
<path d="M36.6275 11.2094C36.4344 10.4447 36.0413 9.74408 35.4878 9.17826C34.9342 8.61243 34.2399 8.20146 33.475 7.98686C30.68 7.31012 19.5 7.31012 19.5 7.31012C19.5 7.31012 8.31995 7.31012 5.52495 8.05131C4.75998 8.26591 4.06567 8.67688 3.51214 9.24271C2.95862 9.80854 2.56548 10.5092 2.37245 11.2739C1.86093 14.0865 1.61071 16.9397 1.62495 19.7976C1.60672 22.677 1.85695 25.552 2.37245 28.3858C2.58526 29.1267 2.9872 29.8007 3.53944 30.3426C4.09167 30.8846 4.77554 31.2761 5.52495 31.4794C8.31995 32.2206 19.5 32.2206 19.5 32.2206C19.5 32.2206 30.68 32.2206 33.475 31.4794C34.2399 31.2648 34.9342 30.8539 35.4878 30.288C36.0413 29.7222 36.4344 29.0216 36.6275 28.2569C37.135 25.4654 37.3852 22.634 37.375 19.7976C37.3932 16.9182 37.143 14.0432 36.6275 11.2094V11.2094Z" stroke="white" stroke-width="2" stroke-linecap="round" stroke-linejoin="round"/>
<path d="M15.8438 25.0665L25.1875 19.7976L15.8438 14.5287V25.0665Z" stroke="white" stroke-width="2" stroke-linecap="round" stroke-linejoin="round"/>
</svg>
